<?xml version="1.0" encoding="UTF-8" standalone="no"?>
<svg
   version="1.1"
   width="64"
   height="64"
   id="svg6333"
   sodipodi:docname="bmi.svg"
   inkscape:version="1.1.1 (3bf5ae0d25, 2021-09-20)"
   xmlns:inkscape="http://www.inkscape.org/namespaces/inkscape"
   xmlns:sodipodi="http://sodipodi.sourceforge.net/DTD/sodipodi-0.dtd"
   xmlns:xlink="http://www.w3.org/1999/xlink"
   xmlns="http://www.w3.org/2000/svg"
   xmlns:svg="http://www.w3.org/2000/svg"
   xmlns:rdf="http://www.w3.org/1999/02/22-rdf-syntax-ns#"
   xmlns:cc="http://creativecommons.org/ns#"
   xmlns:dc="http://purl.org/dc/elements/1.1/">
  <sodipodi:namedview
     id="namedview38"
     pagecolor="#ffffff"
     bordercolor="#666666"
     borderopacity="1.0"
     inkscape:pageshadow="2"
     inkscape:pageopacity="0.0"
     inkscape:pagecheckerboard="0"
     showgrid="false"
     inkscape:zoom="1"
     inkscape:cx="73"
     inkscape:cy="38.5"
     inkscape:window-width="2560"
     inkscape:window-height="1379"
     inkscape:window-x="0"
     inkscape:window-y="30"
     inkscape:window-maximized="1"
     inkscape:current-layer="svg6333">
    <inkscape:grid
       type="xygrid"
       id="grid1543" />
  </sodipodi:namedview>
  <defs
     id="defs6335">
    <linearGradient
       id="linearGradient872">
      <stop
         style="stop-color:#ffa154;stop-opacity:1"
         offset="0"
         id="stop868" />
      <stop
         style="stop-color:#f37329;stop-opacity:1"
         offset="1"
         id="stop870" />
    </linearGradient>
    <linearGradient
       x1="23.99999"
       y1="4.999989"
       x2="23.99999"
       y2="43"
       id="linearGradient3381-5-4"
       xlink:href="#linearGradient3924-2-2-5-8"
       gradientUnits="userSpaceOnUse"
       gradientTransform="matrix(1.4324324,0,0,1.4362832,-2.378381,-2.4707782)" />
    <linearGradient
       id="linearGradient3924-2-2-5-8">
      <stop
         id="stop3926-9-4-9-6"
         style="stop-color:#ffffff;stop-opacity:1"
         offset="0" />
      <stop
         id="stop3928-9-8-6-5"
         style="stop-color:#ffffff;stop-opacity:0.23529412"
         offset="0.06316455" />
      <stop
         id="stop3930-3-5-1-7"
         style="stop-color:#ffffff;stop-opacity:0.15686275"
         offset="0.95056331" />
      <stop
         id="stop3932-8-0-4-8"
         style="stop-color:#ffffff;stop-opacity:0.39215687"
         offset="1" />
    </linearGradient>
    <radialGradient
       cx="4.9929786"
       cy="43.5"
       r="2.5"
       fx="4.9929786"
       fy="43.5"
       id="radialGradient3337-2-2"
       xlink:href="#linearGradient3688-166-749-4-0-3-8"
       gradientUnits="userSpaceOnUse"
       gradientTransform="matrix(2.4045407,0,0,0.99999998,41.985755,15.500001)" />
    <linearGradient
       id="linearGradient3688-166-749-4-0-3-8">
      <stop
         id="stop2883-4-0-1-8"
         style="stop-color:#181818;stop-opacity:1"
         offset="0" />
      <stop
         id="stop2885-9-2-9-6"
         style="stop-color:#181818;stop-opacity:0"
         offset="1" />
    </linearGradient>
    <radialGradient
       cx="4.9929786"
       cy="43.5"
       r="2.5"
       fx="4.9929786"
       fy="43.5"
       id="radialGradient3339-1-4"
       xlink:href="#linearGradient3688-464-309-9-2-4-2"
       gradientUnits="userSpaceOnUse"
       gradientTransform="matrix(2.4045407,0,0,0.99999998,-22.014244,-102.5)" />
    <linearGradient
       id="linearGradient3688-464-309-9-2-4-2">
      <stop
         id="stop2889-7-9-6-9"
         style="stop-color:#181818;stop-opacity:1"
         offset="0" />
      <stop
         id="stop2891-6-6-1-7"
         style="stop-color:#181818;stop-opacity:0"
         offset="1" />
    </linearGradient>
    <linearGradient
       id="linearGradient3702-501-757-8-4-1-1">
      <stop
         id="stop2895-8-9-9-1"
         style="stop-color:#181818;stop-opacity:0"
         offset="0" />
      <stop
         id="stop2897-7-8-7-7"
         style="stop-color:#181818;stop-opacity:1"
         offset="0.5" />
      <stop
         id="stop2899-4-5-1-5"
         style="stop-color:#181818;stop-opacity:0"
         offset="1" />
    </linearGradient>
    <linearGradient
       x1="25.058096"
       y1="47.027729"
       x2="25.058096"
       y2="39.999443"
       id="linearGradient6394"
       xlink:href="#linearGradient3702-501-757-8-4-1-1"
       gradientUnits="userSpaceOnUse"
       gradientTransform="matrix(1.5714286,0,0,0.7142857,-5.7142853,27.928572)" />
    <linearGradient
       xlink:href="#linearGradient872"
       id="linearGradient856-2-3"
       x1="23.528315"
       y1="6.08318"
       x2="23.528315"
       y2="44.23307"
       gradientUnits="userSpaceOnUse"
       gradientTransform="matrix(1.4102564,0,0,1.4102564,-1.8461748,-3.2564048)" />
  </defs>
  <metadata
     id="metadata6338">
    <rdf:RDF>
      <cc:Work
         rdf:about="">
        <dc:format>image/svg+xml</dc:format>
        <dc:type
           rdf:resource="http://purl.org/dc/dcmitype/StillImage" />
      </cc:Work>
    </rdf:RDF>
  </metadata>
  <rect
     style="opacity:0.6;fill:url(#radialGradient3337-2-2);fill-opacity:1;stroke:none;stroke-width:1.06199"
     id="rect2801-5-5-7-9"
     y="56.5"
     x="54"
     height="5"
     width="6" />
  <rect
     style="opacity:0.6;fill:url(#radialGradient3339-1-4);fill-opacity:1;stroke:none;stroke-width:1.06199"
     id="rect3696-3-0-3-7"
     transform="scale(-1)"
     y="-61.5"
     x="-10"
     height="5"
     width="6" />
  <rect
     style="opacity:0.6;fill:url(#linearGradient6394);fill-opacity:1;stroke:none;stroke-width:1.06199"
     id="rect3700-5-6-8-4"
     y="56.5"
     x="10"
     height="5.0000005"
     width="44" />
  <rect
     style="color:#000000;display:inline;overflow:visible;visibility:visible;opacity:1;fill:url(#linearGradient856-2-3);fill-opacity:1;fill-rule:nonzero;stroke:#a62100;stroke-width:1;stroke-opacity:0.5;marker:none;enable-background:accumulate"
     id="rect5505-21-1-5"
     y="4.5000019"
     x="4.4999986"
     ry="6"
     rx="6"
     height="55"
     width="55" />
  <rect
     style="opacity:0.5;fill:none;stroke:url(#linearGradient3381-5-4);stroke-width:1;stroke-linecap:round;stroke-linejoin:round;stroke-miterlimit:4;stroke-dasharray:none;stroke-dashoffset:0;stroke-opacity:1"
     id="rect6741-5-0-2-3"
     y="5.4287739"
     x="5.4999986"
     ry="5"
     height="53.142479"
     width="53"
     rx="5" />
  <path
     style="fill:#000000"
     id="path1179"
     d="" />
  <path
     style="fill:#000000"
     id="path1051"
     d="" />
  <path
     style="fill:#000000"
     id="path1013"
     d="" />
  <path
     style="fill:#000000"
     id="path957"
     d="" />
  <path
     id="path1578-3-6"
     style="font-variation-settings:normal;opacity:0.15;vector-effect:none;fill:#a62100;fill-opacity:1;stroke:none;stroke-width:1;stroke-linecap:butt;stroke-linejoin:miter;stroke-miterlimit:4;stroke-dasharray:none;stroke-dashoffset:0;stroke-opacity:1;-inkscape-stroke:none;marker:none;stop-color:#000000;stop-opacity:1"
     sodipodi:type="inkscape:offset"
     inkscape:radius="1"
     inkscape:original="M 7 22 L 7 42 L 23 42 L 25 40 L 25 34 L 23 32 L 25 30 L 25 24 L 23 22 L 7 22 z M 28 22 L 28 42 L 32 42 L 32 29 L 37 36 L 41 36 L 46 29 L 46 42 L 50 42 L 50 22 L 46 22 L 39 32 L 32 22 L 28 22 z M 53 22 L 53 42 L 57 42 L 57 22 L 53 22 z M 11 26 L 21 26 L 21 30 L 11 30 L 11 26 z M 11 34 L 21 34 L 21 38 L 11 38 L 11 34 z "
     d="m 7,21 a 1.0001,1.0001 0 0 0 -1,1 v 20 a 1.0001,1.0001 0 0 0 1,1 h 16 a 1.0001,1.0001 0 0 0 0.707031,-0.292969 l 2,-2 A 1.0001,1.0001 0 0 0 26,40 V 34 A 1.0001,1.0001 0 0 0 25.707031,33.292969 L 24.414062,32 25.707031,30.707031 A 1.0001,1.0001 0 0 0 26,30 v -6 a 1.0001,1.0001 0 0 0 -0.292969,-0.707031 l -2,-2 A 1.0001,1.0001 0 0 0 23,21 Z m 21,0 a 1.0001,1.0001 0 0 0 -1,1 v 20 a 1.0001,1.0001 0 0 0 1,1 h 4 a 1.0001,1.0001 0 0 0 1,-1 v -9.876953 l 3.185547,4.458984 A 1.0001,1.0001 0 0 0 37,37 h 4 a 1.0001,1.0001 0 0 0 0.814453,-0.417969 L 45,32.123047 V 42 a 1.0001,1.0001 0 0 0 1,1 h 4 a 1.0001,1.0001 0 0 0 1,-1 V 22 a 1.0001,1.0001 0 0 0 -1,-1 h -4 a 1.0001,1.0001 0 0 0 -0.818359,0.425781 L 39,30.255859 32.818359,21.425781 A 1.0001,1.0001 0 0 0 32,21 Z m 25,0 a 1.0001,1.0001 0 0 0 -1,1 v 20 a 1.0001,1.0001 0 0 0 1,1 h 4 a 1.0001,1.0001 0 0 0 1,-1 V 22 a 1.0001,1.0001 0 0 0 -1,-1 z m -41,6 h 8 v 2 h -8 z m 0,8 h 8 v 2 h -8 z" />
  <path
     id="path1578-3"
     style="fill:#a62100;fill-opacity:1;stroke:none;stroke-width:1;stroke-linecap:butt;stroke-linejoin:miter;stroke-opacity:1;font-variation-settings:normal;opacity:0.3;vector-effect:none;stroke-miterlimit:4;stroke-dasharray:none;stroke-dashoffset:0;-inkscape-stroke:none;marker:none;stop-color:#000000;stop-opacity:1"
     d="m 7,22 v 20 h 16 l 2,-2 v -6 l -2,-2 2,-2 v -6 l -2,-2 z m 21,0 v 20 h 4 V 29 l 5,7 h 4 l 5,-7 v 13 h 4 V 22 H 46 L 39,32 32,22 Z m 25,0 v 20 h 4 V 22 Z m -42,4 h 10 v 4 H 11 Z m 0,8 h 10 v 4 H 11 Z" />
  <path
     id="path1578"
     style="fill:#ffffff;stroke:none;stroke-width:1px;stroke-linecap:butt;stroke-linejoin:miter;stroke-opacity:1;fill-opacity:1"
     d="M 7 21 L 7 41 L 23 41 L 25 39 L 25 33 L 23 31 L 25 29 L 25 23 L 23 21 L 7 21 z M 28 21 L 28 41 L 32 41 L 32 28 L 37 35 L 41 35 L 46 28 L 46 41 L 50 41 L 50 21 L 46 21 L 39 31 L 32 21 L 28 21 z M 53 21 L 53 41 L 57 41 L 57 21 L 53 21 z M 11 25 L 21 25 L 21 29 L 11 29 L 11 25 z M 11 33 L 21 33 L 21 37 L 11 37 L 11 33 z " />
  <path
     id="path1578-3-3"
     style="font-variation-settings:normal;opacity:0.07;vector-effect:none;fill:#a62100;fill-opacity:1;stroke:none;stroke-width:1;stroke-linecap:butt;stroke-linejoin:miter;stroke-miterlimit:4;stroke-dasharray:none;stroke-dashoffset:0;stroke-opacity:1;-inkscape-stroke:none;marker:none;stop-color:#000000;stop-opacity:1"
     d="M 11 24 L 11 25 L 21 25 L 21 24 L 11 24 z M 32 27 L 32 28 L 37 35 L 41 35 L 46 28 L 46 27 L 41 34 L 37 34 L 32 27 z M 25 28 L 23 30 L 23.5 30.5 L 25 29 L 25 28 z M 11 32 L 11 33 L 21 33 L 21 32 L 11 32 z M 25 38 L 23 40 L 7 40 L 7 41 L 23 41 L 25 39 L 25 38 z M 28 40 L 28 41 L 32 41 L 32 40 L 28 40 z M 46 40 L 46 41 L 50 41 L 50 40 L 46 40 z M 53 40 L 53 41 L 57 41 L 57 40 L 53 40 z " />
</svg>
