<?xml version="1.0" standalone="no"?>
<!DOCTYPE svg PUBLIC "-//W3C//DTD SVG 20010904//EN"
 "http://www.w3.org/TR/2001/REC-SVG-20010904/DTD/svg10.dtd">
<svg version="1.0" xmlns="http://www.w3.org/2000/svg"
 width="100.000000pt" height="100.000000pt" viewBox="0 0 1000.000000 1000.000000"
 preserveAspectRatio="xMidYMid meet">
<g transform="translate(0.000000,1000.000000) scale(0.100000,-0.100000)"
fill="#438a2e" stroke="none">
<path d="M2537 9765 c-506 -61 -994 -273 -1387 -603 -522 -438 -856 -1056
-935 -1730 -22 -183 -22 -4724 -1 -4902 74 -615 348 -1169 787 -1595 134 -130
231 -210 360 -297 333 -226 687 -364 1114 -435 104 -17 236 -18 2530 -18
l2420 0 130 23 c461 81 826 236 1191 507 156 115 401 361 522 522 264 354 423
729 504 1188 l23 130 0 2425 0 2425 -23 130 c-85 482 -262 885 -550 1250 -74
93 -329 348 -417 416 -410 319 -855 504 -1355 565 -165 19 -4749 19 -4913 -1z
m4865 -1078 c366 -77 620 -209 858 -447 263 -263 423 -600 460 -969 14 -147
14 -4439 -1 -4587 -52 -517 -368 -993 -823 -1238 -178 -96 -402 -165 -600
-185 -153 -15 -4439 -15 -4592 0 -220 22 -462 102 -651 215 -439 263 -719 702
-773 1216 -13 126 -13 4450 0 4576 80 760 656 1342 1417 1432 37 4 1094 7
2348 6 2059 -2 2287 -4 2357 -19z"/>
<path d="M4680 8165 c-309 -37 -589 -122 -869 -261 -437 -217 -787 -530 -1061
-950 -129 -198 -253 -472 -320 -710 -80 -285 -122 -685 -89 -846 18 -89 77
-196 144 -263 105 -105 228 -155 379 -155 159 0 270 44 376 150 120 118 154
210 170 460 6 91 19 204 30 252 68 307 211 569 430 789 138 138 253 222 415
304 377 192 808 225 1208 94 535 -175 947 -631 1066 -1183 12 -54 26 -168 31
-254 6 -86 15 -179 22 -207 40 -180 198 -342 379 -390 73 -20 222 -19 290 1
185 54 326 201 374 389 18 70 19 212 4 375 -116 1258 -1093 2258 -2349 2405
-152 18 -482 18 -630 0z"/>
<path d="M5710 6224 c-14 -3 -38 -10 -55 -16 -35 -13 -794 -546 -843 -592
-105 -98 -109 -280 -8 -380 61 -62 107 -81 196 -81 57 0 84 5 115 21 43 23
742 514 812 570 149 121 118 378 -54 452 -51 22 -122 33 -163 26z"/>
</g>
</svg>
